<mxfile host="app.diagrams.net" agent="Mozilla/5.0 (X11; Ubuntu; Linux x86_64; rv:135.0) Gecko/20100101 Firefox/135.0" version="26.0.16">
  <diagram name="Page-1" id="Page-1">
    <mxGraphModel dx="1147" dy="613" grid="1" gridSize="5" guides="1" tooltips="1" connect="1" arrows="1" fold="1" page="1" pageScale="1" pageWidth="1100" pageHeight="850" math="0" shadow="0">
      <root>
        <mxCell id="0" />
        <mxCell id="1" parent="0" />
        <UserObject label="" tags="Background" id="2">
          <mxCell style="vsdxID=1;fillColor=none;gradientColor=none;shape=stencil(nZBLDoAgDERP0z3SIyjew0SURgSD+Lu9kMZoXLhwN9O+tukAlrNpJg1SzDH4QW/URgNYgZTkjA4UkwJUgGXng+6DX1zLfmoymdXo17xh5zmRJ6Q42BWCfc2oJfdAr+Yv+AP9Cb7OJ3H/2JG1HNGz/84klThPVCc=);dashed=1;dashPattern=12.00 6.00;points=[[0,0.27,0],[1,0.33,0],[1,0.4,0],[1,0.54,0],[1,0.6,0],[1,0.67,0],[1,0.74,0],[1,0.74,0],[0,0.33,0],[0,0.46,0],[0,0.53,0],[0,0.72,0],[0,0.79,0]];labelBackgroundColor=none;rounded=0;html=1;whiteSpace=wrap;fontFamily=NewsGotT;container=0;" parent="1" vertex="1">
            <mxGeometry x="240" y="200" width="773" height="460" as="geometry" />
          </mxCell>
        </UserObject>
        <UserObject label="" tags="Background" id="4">
          <mxCell style="vsdxID=10;fillColor=none;gradientColor=none;strokeWidth=3;points=[];labelBackgroundColor=none;rounded=0;strokeColor=none;html=1;whiteSpace=wrap;fontFamily=NewsGotT;" parent="1" vertex="1">
            <mxGeometry x="505" y="310" width="28" height="82" as="geometry" />
          </mxCell>
        </UserObject>
        <UserObject label="" tags="Background" id="5">
          <mxCell style="vsdxID=14;fillColor=none;gradientColor=none;points=[];labelBackgroundColor=none;rounded=0;strokeColor=none;html=1;whiteSpace=wrap;fontFamily=NewsGotT;" parent="1" vertex="1">
            <mxGeometry x="396" y="502" width="33" height="116" as="geometry" />
          </mxCell>
        </UserObject>
        <mxCell id="6" style="vsdxID=9;fillColor=#FFFFFF;gradientColor=none;shape=stencil(lZHBDsIgEES/Zq9mZanxXut/NCkVIkJDsdq/F7Ix2iY1eJuBNxPCANWjbgcFAscY/FU9TBc10AmEME6rYGJSQA1Q3fugLsHfXcd+aDOZ1c1PueHJOcwJgTO7I9szk9a4TbI6bJNyheJOUGmvlKXkj6fucYn+w5Z/wTtZgC5Lk/jM0Rtrec3v+/V86Yinp+YF);strokeWidth=3;points=[[0,0.24,0],[1,0.5,0],[0,0.78,0]];labelBackgroundColor=#ffffff;rounded=0;html=1;whiteSpace=wrap;fontFamily=NewsGotT;" parent="5" vertex="1">
          <mxGeometry width="33" height="116" as="geometry" />
        </mxCell>
        <mxCell id="7" value="&lt;div style=&quot;font-size: 1px&quot;&gt;&lt;font style=&quot;font-size: 14.11px; color: rgb(0, 0, 0); direction: ltr; letter-spacing: 0px; line-height: 120%; opacity: 1;&quot;&gt;&lt;b&gt;X&lt;br&gt;&lt;/b&gt;&lt;/font&gt;&lt;/div&gt;" style="verticalAlign=middle;align=center;overflow=width;vsdxID=12;fillColor=none;gradientColor=none;shape=stencil(nZBLDoAgDERP0z3SIyjew0SURgSD+Lu9kMZoXLhwN9O+tukAlrNpJg1SzDH4QW/URgNYgZTkjA4UkwJUgGXng+6DX1zLfmoymdXo17xh5zmRJ6Q42BWCfc2oJfdAr+Yv+AP9Cb7OJ3H/2JG1HNGz/84klThPVCc=);strokeColor=none;strokeWidth=3;points=[];labelBackgroundColor=none;rounded=0;html=1;whiteSpace=wrap;fontFamily=NewsGotT;" parent="5" vertex="1">
          <mxGeometry x="13" y="46" width="18" height="22" as="geometry" />
        </mxCell>
        <UserObject label="&lt;div style=&quot;font-size: 1px&quot;&gt;&lt;p style=&quot;text-align:right;margin-left:0;margin-right:0;margin-top:0px;margin-bottom:0px;text-indent:0;vertical-align:middle;direction:ltr;&quot;&gt;&lt;font style=&quot;font-size: 16.93px; color: rgb(0, 0, 0); direction: ltr; letter-spacing: 0px; line-height: 120%; opacity: 1;&quot;&gt;x0_real&lt;br&gt;&lt;/font&gt;&lt;/p&gt;&lt;/div&gt;" tags="Background" id="8">
          <mxCell style="verticalAlign=middle;align=right;overflow=width;vsdxID=48;fillColor=none;gradientColor=none;shape=stencil(nZBLDoAgDERP0z3SIyjew0SURgSD+Lu9kMZoXLhwN9O+tukAlrNpJg1SzDH4QW/URgNYgZTkjA4UkwJUgGXng+6DX1zLfmoymdXo17xh5zmRJ6Q42BWCfc2oJfdAr+Yv+AP9Cb7OJ3H/2JG1HNGz/84klThPVCc=);strokeColor=none;points=[];labelBackgroundColor=none;rounded=0;html=1;whiteSpace=wrap;fontFamily=NewsGotT;" parent="1" vertex="1">
            <mxGeometry x="141" y="296" width="70" height="28" as="geometry" />
          </mxCell>
        </UserObject>
        <UserObject label="&lt;div style=&quot;font-size: 1px&quot;&gt;&lt;p style=&quot;text-align:right;margin-left:0;margin-right:0;margin-top:0px;margin-bottom:0px;text-indent:0;vertical-align:middle;direction:ltr;&quot;&gt;&lt;font style=&quot;font-size: 16.93px; color: rgb(0, 0, 0); direction: ltr; letter-spacing: 0px; line-height: 120%; opacity: 1;&quot;&gt;x0_im&lt;br&gt;&lt;/font&gt;&lt;/p&gt;&lt;/div&gt;" tags="Background" id="9">
          <mxCell style="verticalAlign=middle;align=right;overflow=width;vsdxID=51;fillColor=none;gradientColor=none;shape=stencil(nZBLDoAgDERP0z3SIyjew0SURgSD+Lu9kMZoXLhwN9O+tukAlrNpJg1SzDH4QW/URgNYgZTkjA4UkwJUgGXng+6DX1zLfmoymdXo17xh5zmRJ6Q42BWCfc2oJfdAr+Yv+AP9Cb7OJ3H/2JG1HNGz/84klThPVCc=);strokeColor=none;points=[];labelBackgroundColor=none;rounded=0;html=1;whiteSpace=wrap;fontFamily=NewsGotT;" parent="1" vertex="1">
            <mxGeometry x="141" y="328" width="70" height="28" as="geometry" />
          </mxCell>
        </UserObject>
        <UserObject label="&lt;div style=&quot;font-size: 1px&quot;&gt;&lt;p style=&quot;text-align:right;margin-left:0;margin-right:0;margin-top:0px;margin-bottom:0px;text-indent:0;vertical-align:middle;direction:ltr;&quot;&gt;&lt;font style=&quot;font-size: 16.93px; color: rgb(0, 0, 0); direction: ltr; letter-spacing: 0px; line-height: 120%; opacity: 1;&quot;&gt;x1_real&lt;br&gt;&lt;/font&gt;&lt;/p&gt;&lt;/div&gt;" tags="Background" id="10">
          <mxCell style="verticalAlign=middle;align=right;overflow=width;vsdxID=56;fillColor=none;gradientColor=none;shape=stencil(nZBLDoAgDERP0z3SIyjew0SURgSD+Lu9kMZoXLhwN9O+tukAlrNpJg1SzDH4QW/URgNYgZTkjA4UkwJUgGXng+6DX1zLfmoymdXo17xh5zmRJ6Q42BWCfc2oJfdAr+Yv+AP9Cb7OJ3H/2JG1HNGz/84klThPVCc=);strokeColor=none;points=[];labelBackgroundColor=none;rounded=0;html=1;whiteSpace=wrap;fontFamily=NewsGotT;" parent="1" vertex="1">
            <mxGeometry x="141" y="385" width="70" height="28" as="geometry" />
          </mxCell>
        </UserObject>
        <UserObject label="&lt;div style=&quot;font-size: 1px&quot;&gt;&lt;p style=&quot;text-align:right;margin-left:0;margin-right:0;margin-top:0px;margin-bottom:0px;text-indent:0;vertical-align:middle;direction:ltr;&quot;&gt;&lt;font style=&quot;font-size: 16.93px; color: rgb(0, 0, 0); direction: ltr; letter-spacing: 0px; line-height: 120%; opacity: 1;&quot;&gt;x1_im&lt;br&gt;&lt;/font&gt;&lt;/p&gt;&lt;/div&gt;" tags="Background" id="11">
          <mxCell style="verticalAlign=middle;align=right;overflow=width;vsdxID=57;fillColor=none;gradientColor=none;shape=stencil(nZBLDoAgDERP0z3SIyjew0SURgSD+Lu9kMZoXLhwN9O+tukAlrNpJg1SzDH4QW/URgNYgZTkjA4UkwJUgGXng+6DX1zLfmoymdXo17xh5zmRJ6Q42BWCfc2oJfdAr+Yv+AP9Cb7OJ3H/2JG1HNGz/84klThPVCc=);strokeColor=none;points=[];labelBackgroundColor=none;rounded=0;html=1;whiteSpace=wrap;fontFamily=NewsGotT;" parent="1" vertex="1">
            <mxGeometry x="141" y="415" width="70" height="28" as="geometry" />
          </mxCell>
        </UserObject>
        <UserObject label="&lt;div style=&quot;font-size: 1px&quot;&gt;&lt;p style=&quot;text-align:right;margin-left:0;margin-right:0;margin-top:0px;margin-bottom:0px;text-indent:0;vertical-align:middle;direction:ltr;&quot;&gt;&lt;font style=&quot;font-size: 16.93px; color: rgb(0, 0, 0); direction: ltr; letter-spacing: 0px; line-height: 120%; opacity: 1;&quot;&gt;w_real&lt;br&gt;&lt;/font&gt;&lt;/p&gt;&lt;/div&gt;" tags="Background" id="12">
          <mxCell style="verticalAlign=middle;align=right;overflow=width;vsdxID=58;fillColor=none;gradientColor=none;shape=stencil(nZBLDoAgDERP0z3SIyjew0SURgSD+Lu9kMZoXLhwN9O+tukAlrNpJg1SzDH4QW/URgNYgZTkjA4UkwJUgGXng+6DX1zLfmoymdXo17xh5zmRJ6Q42BWCfc2oJfdAr+Yv+AP9Cb7OJ3H/2JG1HNGz/84klThPVCc=);strokeColor=none;points=[];labelBackgroundColor=none;rounded=0;html=1;whiteSpace=wrap;fontFamily=NewsGotT;" parent="1" vertex="1">
            <mxGeometry x="141" y="505" width="70" height="28" as="geometry" />
          </mxCell>
        </UserObject>
        <UserObject label="&lt;div style=&quot;font-size: 1px&quot;&gt;&lt;p style=&quot;text-align:right;margin-left:0;margin-right:0;margin-top:0px;margin-bottom:0px;text-indent:0;vertical-align:middle;direction:ltr;&quot;&gt;&lt;font style=&quot;font-size: 16.93px; color: rgb(0, 0, 0); direction: ltr; letter-spacing: 0px; line-height: 120%; opacity: 1;&quot;&gt;w_im&lt;br&gt;&lt;/font&gt;&lt;/p&gt;&lt;/div&gt;" tags="Background" id="13">
          <mxCell style="verticalAlign=middle;align=right;overflow=width;vsdxID=59;fillColor=none;gradientColor=none;shape=stencil(nZBLDoAgDERP0z3SIyjew0SURgSD+Lu9kMZoXLhwN9O+tukAlrNpJg1SzDH4QW/URgNYgZTkjA4UkwJUgGXng+6DX1zLfmoymdXo17xh5zmRJ6Q42BWCfc2oJfdAr+Yv+AP9Cb7OJ3H/2JG1HNGz/84klThPVCc=);strokeColor=none;points=[];labelBackgroundColor=none;rounded=0;html=1;whiteSpace=wrap;fontFamily=NewsGotT;" parent="1" vertex="1">
            <mxGeometry x="141" y="535" width="70" height="28" as="geometry" />
          </mxCell>
        </UserObject>
        <UserObject label="" tags="Background" id="14">
          <mxCell style="vsdxID=60;fillColor=none;gradientColor=none;points=[];labelBackgroundColor=none;rounded=0;strokeColor=none;html=1;whiteSpace=wrap;fontFamily=NewsGotT;" parent="1" vertex="1">
            <mxGeometry x="396" y="372" width="33" height="116" as="geometry" />
          </mxCell>
        </UserObject>
        <mxCell id="15" style="vsdxID=61;fillColor=#FFFFFF;gradientColor=none;shape=stencil(lZHBDsIgEES/Zq9mZanxXut/NCkVIkJDsdq/F7Ix2iY1eJuBNxPCANWjbgcFAscY/FU9TBc10AmEME6rYGJSQA1Q3fugLsHfXcd+aDOZ1c1PueHJOcwJgTO7I9szk9a4TbI6bJNyheJOUGmvlKXkj6fucYn+w5Z/wTtZgC5Lk/jM0Rtrec3v+/V86Yinp+YF);strokeWidth=3;points=[[0,0.24,0],[1,0.5,0],[0,0.78,0]];labelBackgroundColor=#ffffff;rounded=0;html=1;whiteSpace=wrap;fontFamily=NewsGotT;" parent="14" vertex="1">
          <mxGeometry width="33" height="116" as="geometry" />
        </mxCell>
        <mxCell id="16" value="&lt;div style=&quot;font-size: 1px&quot;&gt;&lt;font style=&quot;font-size: 14.11px; color: rgb(0, 0, 0); direction: ltr; letter-spacing: 0px; line-height: 120%; opacity: 1;&quot;&gt;&lt;b&gt;X&lt;br&gt;&lt;/b&gt;&lt;/font&gt;&lt;/div&gt;" style="verticalAlign=middle;align=center;overflow=width;vsdxID=62;fillColor=none;gradientColor=none;shape=stencil(nZBLDoAgDERP0z3SIyjew0SURgSD+Lu9kMZoXLhwN9O+tukAlrNpJg1SzDH4QW/URgNYgZTkjA4UkwJUgGXng+6DX1zLfmoymdXo17xh5zmRJ6Q42BWCfc2oJfdAr+Yv+AP9Cb7OJ3H/2JG1HNGz/84klThPVCc=);strokeColor=none;strokeWidth=3;points=[];labelBackgroundColor=none;rounded=0;html=1;whiteSpace=wrap;fontFamily=NewsGotT;" parent="14" vertex="1">
          <mxGeometry x="13" y="46" width="18" height="22" as="geometry" />
        </mxCell>
        <UserObject label="" tags="Background" id="17">
          <mxCell style="vsdxID=63;fillColor=none;gradientColor=none;points=[];labelBackgroundColor=none;rounded=0;strokeColor=none;html=1;whiteSpace=wrap;fontFamily=NewsGotT;" parent="1" vertex="1">
            <mxGeometry x="576" y="234" width="33" height="116" as="geometry" />
          </mxCell>
        </UserObject>
        <mxCell id="18" style="vsdxID=64;fillColor=#FFFFFF;gradientColor=none;shape=stencil(lZHBDsIgEES/Zq9mZanxXut/NCkVIkJDsdq/F7Ix2iY1eJuBNxPCANWjbgcFAscY/FU9TBc10AmEME6rYGJSQA1Q3fugLsHfXcd+aDOZ1c1PueHJOcwJgTO7I9szk9a4TbI6bJNyheJOUGmvlKXkj6fucYn+w5Z/wTtZgC5Lk/jM0Rtrec3v+/V86Yinp+YF);strokeWidth=3;points=[[0,0.24,0],[1,0.5,0],[0,0.78,0]];labelBackgroundColor=#ffffff;rounded=0;html=1;whiteSpace=wrap;fontFamily=NewsGotT;" parent="17" vertex="1">
          <mxGeometry width="33" height="116" as="geometry" />
        </mxCell>
        <mxCell id="19" value="&lt;div style=&quot;font-size: 1px&quot;&gt;&lt;font style=&quot;font-size: 19.76px; color: rgb(0, 0, 0); direction: ltr; letter-spacing: 0px; line-height: 120%; opacity: 1;&quot;&gt;&lt;b&gt;+&lt;br&gt;&lt;/b&gt;&lt;/font&gt;&lt;/div&gt;" style="verticalAlign=middle;align=center;overflow=width;vsdxID=65;fillColor=none;gradientColor=none;shape=stencil(nZBLDoAgDERP0z3SIyjew0SURgSD+Lu9kMZoXLhwN9O+tukAlrNpJg1SzDH4QW/URgNYgZTkjA4UkwJUgGXng+6DX1zLfmoymdXo17xh5zmRJ6Q42BWCfc2oJfdAr+Yv+AP9Cb7OJ3H/2JG1HNGz/84klThPVCc=);strokeColor=none;strokeWidth=3;points=[];labelBackgroundColor=none;rounded=0;html=1;whiteSpace=wrap;fontFamily=NewsGotT;" parent="17" vertex="1">
          <mxGeometry x="13" y="46" width="18" height="22" as="geometry" />
        </mxCell>
        <UserObject label="&lt;div style=&quot;font-size: 1px&quot;&gt;&lt;p style=&quot;text-align:left;margin-left:0;margin-right:0;margin-top:0px;margin-bottom:0px;text-indent:0;vertical-align:middle;direction:ltr;&quot;&gt;&lt;font style=&quot;font-size: 16.93px; color: rgb(0, 0, 0); direction: ltr; letter-spacing: 0px; line-height: 120%; opacity: 1;&quot;&gt;X0_Real&lt;br&gt;&lt;/font&gt;&lt;/p&gt;&lt;/div&gt;" tags="Background" id="20">
          <mxCell style="verticalAlign=middle;align=left;overflow=width;vsdxID=68;fillColor=none;gradientColor=none;shape=stencil(nZBLDoAgDERP0z3SIyjew0SURgSD+Lu9kMZoXLhwN9O+tukAlrNpJg1SzDH4QW/URgNYgZTkjA4UkwJUgGXng+6DX1zLfmoymdXo17xh5zmRJ6Q42BWCfc2oJfdAr+Yv+AP9Cb7OJ3H/2JG1HNGz/84klThPVCc=);strokeColor=none;points=[];labelBackgroundColor=none;rounded=0;html=1;whiteSpace=wrap;fontFamily=NewsGotT;" parent="1" vertex="1">
            <mxGeometry x="1040" y="328" width="70" height="28" as="geometry" />
          </mxCell>
        </UserObject>
        <UserObject label="&lt;div style=&quot;font-size: 1px&quot;&gt;&lt;p style=&quot;text-align:left;margin-left:0;margin-right:0;margin-top:0px;margin-bottom:0px;text-indent:0;vertical-align:middle;direction:ltr;&quot;&gt;&lt;font style=&quot;font-size: 16.93px; color: rgb(0, 0, 0); direction: ltr; letter-spacing: 0px; line-height: 120%; opacity: 1;&quot;&gt;X0_Im&lt;br&gt;&lt;/font&gt;&lt;/p&gt;&lt;/div&gt;" tags="Background" id="21">
          <mxCell style="verticalAlign=middle;align=left;overflow=width;vsdxID=69;fillColor=none;gradientColor=none;shape=stencil(nZBLDoAgDERP0z3SIyjew0SURgSD+Lu9kMZoXLhwN9O+tukAlrNpJg1SzDH4QW/URgNYgZTkjA4UkwJUgGXng+6DX1zLfmoymdXo17xh5zmRJ6Q42BWCfc2oJfdAr+Yv+AP9Cb7OJ3H/2JG1HNGz/84klThPVCc=);strokeColor=none;points=[[-0.37,0.85,0]];labelBackgroundColor=none;rounded=0;html=1;whiteSpace=wrap;fontFamily=NewsGotT;" parent="1" vertex="1">
            <mxGeometry x="1040" y="362" width="70" height="28" as="geometry" />
          </mxCell>
        </UserObject>
        <UserObject label="&lt;div style=&quot;font-size: 1px&quot;&gt;&lt;p style=&quot;text-align:left;margin-left:0;margin-right:0;margin-top:0px;margin-bottom:0px;text-indent:0;vertical-align:middle;direction:ltr;&quot;&gt;&lt;font style=&quot;font-size: 16.93px; color: rgb(0, 0, 0); direction: ltr; letter-spacing: 0px; line-height: 120%; opacity: 1;&quot;&gt;X1_Real&lt;br&gt;&lt;/font&gt;&lt;/p&gt;&lt;/div&gt;" tags="Background" id="22">
          <mxCell style="verticalAlign=middle;align=left;overflow=width;vsdxID=70;fillColor=none;gradientColor=none;shape=stencil(nZBLDoAgDERP0z3SIyjew0SURgSD+Lu9kMZoXLhwN9O+tukAlrNpJg1SzDH4QW/URgNYgZTkjA4UkwJUgGXng+6DX1zLfmoymdXo17xh5zmRJ6Q42BWCfc2oJfdAr+Yv+AP9Cb7OJ3H/2JG1HNGz/84klThPVCc=);strokeColor=none;points=[];labelBackgroundColor=none;rounded=0;html=1;whiteSpace=wrap;fontFamily=NewsGotT;" parent="1" vertex="1">
            <mxGeometry x="1040" y="486" width="70" height="28" as="geometry" />
          </mxCell>
        </UserObject>
        <UserObject label="&lt;div style=&quot;font-size: 1px&quot;&gt;&lt;p style=&quot;text-align:left;margin-left:0;margin-right:0;margin-top:0px;margin-bottom:0px;text-indent:0;vertical-align:middle;direction:ltr;&quot;&gt;&lt;font style=&quot;font-size: 16.93px; color: rgb(0, 0, 0); direction: ltr; letter-spacing: 0px; line-height: 120%; opacity: 1;&quot;&gt;X1_Im&lt;br&gt;&lt;/font&gt;&lt;/p&gt;&lt;/div&gt;" tags="Background" id="23">
          <mxCell style="verticalAlign=middle;align=left;overflow=width;vsdxID=71;fillColor=none;gradientColor=none;shape=stencil(nZBLDoAgDERP0z3SIyjew0SURgSD+Lu9kMZoXLhwN9O+tukAlrNpJg1SzDH4QW/URgNYgZTkjA4UkwJUgGXng+6DX1zLfmoymdXo17xh5zmRJ6Q42BWCfc2oJfdAr+Yv+AP9Cb7OJ3H/2JG1HNGz/84klThPVCc=);strokeColor=none;points=[];labelBackgroundColor=none;rounded=0;html=1;whiteSpace=wrap;fontFamily=NewsGotT;" parent="1" vertex="1">
            <mxGeometry x="1040" y="518" width="70" height="28" as="geometry" />
          </mxCell>
        </UserObject>
        <UserObject label="" tags="Background" id="24">
          <mxCell style="vsdxID=81;fillColor=none;gradientColor=none;points=[];labelBackgroundColor=none;rounded=0;strokeColor=none;html=1;whiteSpace=wrap;fontFamily=NewsGotT;" parent="1" vertex="1">
            <mxGeometry x="770" y="330" width="33" height="116" as="geometry" />
          </mxCell>
        </UserObject>
        <mxCell id="25" style="vsdxID=82;fillColor=#FFFFFF;gradientColor=none;shape=stencil(lZHBDsIgEES/Zq9mZanxXut/NCkVIkJDsdq/F7Ix2iY1eJuBNxPCANWjbgcFAscY/FU9TBc10AmEME6rYGJSQA1Q3fugLsHfXcd+aDOZ1c1PueHJOcwJgTO7I9szk9a4TbI6bJNyheJOUGmvlKXkj6fucYn+w5Z/wTtZgC5Lk/jM0Rtrec3v+/V86Yinp+YF);strokeWidth=3;points=[[0,0.24,0],[1,0.5,0],[0,0.78,0]];labelBackgroundColor=#ffffff;rounded=0;html=1;whiteSpace=wrap;fontFamily=NewsGotT;" parent="24" vertex="1">
          <mxGeometry width="33" height="116" as="geometry" />
        </mxCell>
        <mxCell id="26" value="&lt;div style=&quot;font-size: 1px&quot;&gt;&lt;font style=&quot;font-size: 19.76px; color: rgb(0, 0, 0); direction: ltr; letter-spacing: 0px; line-height: 120%; opacity: 1;&quot;&gt;&lt;b&gt;+&lt;br&gt;&lt;/b&gt;&lt;/font&gt;&lt;/div&gt;" style="verticalAlign=middle;align=center;overflow=width;vsdxID=83;fillColor=none;gradientColor=none;shape=stencil(nZBLDoAgDERP0z3SIyjew0SURgSD+Lu9kMZoXLhwN9O+tukAlrNpJg1SzDH4QW/URgNYgZTkjA4UkwJUgGXng+6DX1zLfmoymdXo17xh5zmRJ6Q42BWCfc2oJfdAr+Yv+AP9Cb7OJ3H/2JG1HNGz/84klThPVCc=);strokeColor=none;strokeWidth=3;points=[];labelBackgroundColor=none;rounded=0;html=1;whiteSpace=wrap;fontFamily=NewsGotT;" parent="24" vertex="1">
          <mxGeometry x="13" y="46" width="18" height="22" as="geometry" />
        </mxCell>
        <UserObject label="" tags="Background" id="27">
          <mxCell style="vsdxID=85;fillColor=none;gradientColor=none;points=[];labelBackgroundColor=none;rounded=0;strokeColor=none;html=1;whiteSpace=wrap;fontFamily=NewsGotT;" parent="1" vertex="1">
            <mxGeometry x="480" y="437" width="33" height="116" as="geometry" />
          </mxCell>
        </UserObject>
        <mxCell id="28" style="vsdxID=86;fillColor=#FFFFFF;gradientColor=none;shape=stencil(lZHBDsIgEES/Zq9mZanxXut/NCkVIkJDsdq/F7Ix2iY1eJuBNxPCANWjbgcFAscY/FU9TBc10AmEME6rYGJSQA1Q3fugLsHfXcd+aDOZ1c1PueHJOcwJgTO7I9szk9a4TbI6bJNyheJOUGmvlKXkj6fucYn+w5Z/wTtZgC5Lk/jM0Rtrec3v+/V86Yinp+YF);strokeWidth=3;points=[[0,0.24,0],[1,0.5,0],[0,0.78,0]];labelBackgroundColor=#ffffff;rounded=0;html=1;whiteSpace=wrap;fontFamily=NewsGotT;" parent="27" vertex="1">
          <mxGeometry width="33" height="116" as="geometry" />
        </mxCell>
        <mxCell id="29" value="&lt;div style=&quot;font-size: 1px&quot;&gt;&lt;font style=&quot;font-size: 19.76px; color: rgb(0, 0, 0); direction: ltr; letter-spacing: 0px; line-height: 120%; opacity: 1;&quot;&gt;&lt;b&gt;-&lt;br&gt;&lt;/b&gt;&lt;/font&gt;&lt;/div&gt;" style="verticalAlign=middle;align=center;overflow=width;vsdxID=87;fillColor=none;gradientColor=none;shape=stencil(nZBLDoAgDERP0z3SIyjew0SURgSD+Lu9kMZoXLhwN9O+tukAlrNpJg1SzDH4QW/URgNYgZTkjA4UkwJUgGXng+6DX1zLfmoymdXo17xh5zmRJ6Q42BWCfc2oJfdAr+Yv+AP9Cb7OJ3H/2JG1HNGz/84klThPVCc=);strokeColor=none;strokeWidth=3;points=[];labelBackgroundColor=none;rounded=0;html=1;whiteSpace=wrap;fontFamily=NewsGotT;" parent="27" vertex="1">
          <mxGeometry x="13" y="46" width="18" height="22" as="geometry" />
        </mxCell>
        <UserObject label="" tags="Background" id="30">
          <mxCell style="vsdxID=91;fillColor=none;gradientColor=none;points=[];labelBackgroundColor=none;rounded=0;strokeColor=none;html=1;whiteSpace=wrap;fontFamily=NewsGotT;" parent="1" vertex="1">
            <mxGeometry x="603" y="364" width="33" height="116" as="geometry" />
          </mxCell>
        </UserObject>
        <mxCell id="31" style="vsdxID=92;fillColor=#FFFFFF;gradientColor=none;shape=stencil(lZHBDsIgEES/Zq9mZanxXut/NCkVIkJDsdq/F7Ix2iY1eJuBNxPCANWjbgcFAscY/FU9TBc10AmEME6rYGJSQA1Q3fugLsHfXcd+aDOZ1c1PueHJOcwJgTO7I9szk9a4TbI6bJNyheJOUGmvlKXkj6fucYn+w5Z/wTtZgC5Lk/jM0Rtrec3v+/V86Yinp+YF);strokeWidth=3;points=[[0,0.24,0],[1,0.5,0],[0,0.78,0]];labelBackgroundColor=#ffffff;rounded=0;html=1;whiteSpace=wrap;fontFamily=NewsGotT;" parent="30" vertex="1">
          <mxGeometry width="33" height="116" as="geometry" />
        </mxCell>
        <mxCell id="32" value="&lt;div style=&quot;font-size: 1px&quot;&gt;&lt;font style=&quot;font-size: 14.11px; color: rgb(0, 0, 0); direction: ltr; letter-spacing: 0px; line-height: 120%; opacity: 1;&quot;&gt;&lt;b&gt;X&lt;br&gt;&lt;/b&gt;&lt;/font&gt;&lt;/div&gt;" style="verticalAlign=middle;align=center;overflow=width;vsdxID=93;fillColor=none;gradientColor=none;shape=stencil(nZBLDoAgDERP0z3SIyjew0SURgSD+Lu9kMZoXLhwN9O+tukAlrNpJg1SzDH4QW/URgNYgZTkjA4UkwJUgGXng+6DX1zLfmoymdXo17xh5zmRJ6Q42BWCfc2oJfdAr+Yv+AP9Cb7OJ3H/2JG1HNGz/84klThPVCc=);strokeColor=none;strokeWidth=3;points=[];labelBackgroundColor=none;rounded=0;html=1;whiteSpace=wrap;fontFamily=NewsGotT;" parent="30" vertex="1">
          <mxGeometry x="13" y="46" width="18" height="22" as="geometry" />
        </mxCell>
        <UserObject label="" tags="Background" id="33">
          <mxCell style="vsdxID=94;fillColor=none;gradientColor=none;points=[];labelBackgroundColor=none;rounded=0;strokeColor=none;html=1;whiteSpace=wrap;fontFamily=NewsGotT;" parent="1" vertex="1">
            <mxGeometry x="603" y="514" width="33" height="116" as="geometry" />
          </mxCell>
        </UserObject>
        <mxCell id="34" style="vsdxID=95;fillColor=#FFFFFF;gradientColor=none;shape=stencil(lZHBDsIgEES/Zq9mZanxXut/NCkVIkJDsdq/F7Ix2iY1eJuBNxPCANWjbgcFAscY/FU9TBc10AmEME6rYGJSQA1Q3fugLsHfXcd+aDOZ1c1PueHJOcwJgTO7I9szk9a4TbI6bJNyheJOUGmvlKXkj6fucYn+w5Z/wTtZgC5Lk/jM0Rtrec3v+/V86Yinp+YF);strokeWidth=3;points=[[0,0.24,0],[1,0.5,0],[0,0.78,0]];labelBackgroundColor=#ffffff;rounded=0;html=1;whiteSpace=wrap;fontFamily=NewsGotT;" parent="33" vertex="1">
          <mxGeometry width="33" height="116" as="geometry" />
        </mxCell>
        <mxCell id="35" value="&lt;div style=&quot;font-size: 1px&quot;&gt;&lt;font style=&quot;font-size: 14.11px; color: rgb(0, 0, 0); direction: ltr; letter-spacing: 0px; line-height: 120%; opacity: 1;&quot;&gt;&lt;b&gt;X&lt;br&gt;&lt;/b&gt;&lt;/font&gt;&lt;/div&gt;" style="verticalAlign=middle;align=center;overflow=width;vsdxID=96;fillColor=none;gradientColor=none;shape=stencil(nZBLDoAgDERP0z3SIyjew0SURgSD+Lu9kMZoXLhwN9O+tukAlrNpJg1SzDH4QW/URgNYgZTkjA4UkwJUgGXng+6DX1zLfmoymdXo17xh5zmRJ6Q42BWCfc2oJfdAr+Yv+AP9Cb7OJ3H/2JG1HNGz/84klThPVCc=);strokeColor=none;strokeWidth=3;points=[];labelBackgroundColor=none;rounded=0;html=1;whiteSpace=wrap;fontFamily=NewsGotT;" parent="33" vertex="1">
          <mxGeometry x="13" y="46" width="18" height="22" as="geometry" />
        </mxCell>
        <UserObject label="" tags="Background" id="36">
          <mxCell style="vsdxID=104;fillColor=none;gradientColor=none;points=[];labelBackgroundColor=none;rounded=0;strokeColor=none;html=1;whiteSpace=wrap;fontFamily=NewsGotT;" parent="1" vertex="1">
            <mxGeometry x="673" y="454" width="33" height="116" as="geometry" />
          </mxCell>
        </UserObject>
        <mxCell id="37" style="vsdxID=105;fillColor=#FFFFFF;gradientColor=none;shape=stencil(lZHBDsIgEES/Zq9mZanxXut/NCkVIkJDsdq/F7Ix2iY1eJuBNxPCANWjbgcFAscY/FU9TBc10AmEME6rYGJSQA1Q3fugLsHfXcd+aDOZ1c1PueHJOcwJgTO7I9szk9a4TbI6bJNyheJOUGmvlKXkj6fucYn+w5Z/wTtZgC5Lk/jM0Rtrec3v+/V86Yinp+YF);strokeWidth=3;points=[[0,0.24,0],[1,0.5,0],[0,0.78,0]];labelBackgroundColor=#ffffff;rounded=0;html=1;whiteSpace=wrap;fontFamily=NewsGotT;" parent="36" vertex="1">
          <mxGeometry width="33" height="116" as="geometry" />
        </mxCell>
        <mxCell id="38" value="&lt;div style=&quot;font-size: 1px&quot;&gt;&lt;font style=&quot;font-size: 19.76px; color: rgb(0, 0, 0); direction: ltr; letter-spacing: 0px; line-height: 120%; opacity: 1;&quot;&gt;&lt;b&gt;+&lt;br&gt;&lt;/b&gt;&lt;/font&gt;&lt;/div&gt;" style="verticalAlign=middle;align=center;overflow=width;vsdxID=106;fillColor=none;gradientColor=none;shape=stencil(nZBLDoAgDERP0z3SIyjew0SURgSD+Lu9kMZoXLhwN9O+tukAlrNpJg1SzDH4QW/URgNYgZTkjA4UkwJUgGXng+6DX1zLfmoymdXo17xh5zmRJ6Q42BWCfc2oJfdAr+Yv+AP9Cb7OJ3H/2JG1HNGz/84klThPVCc=);strokeColor=none;strokeWidth=3;points=[];labelBackgroundColor=none;rounded=0;html=1;whiteSpace=wrap;fontFamily=NewsGotT;" parent="36" vertex="1">
          <mxGeometry x="13" y="46" width="18" height="22" as="geometry" />
        </mxCell>
        <UserObject label="" tags="Background" id="39">
          <mxCell style="vsdxID=110;fillColor=none;gradientColor=none;points=[[0.56,1.52,0]];labelBackgroundColor=none;rounded=0;strokeColor=none;html=1;whiteSpace=wrap;fontFamily=NewsGotT;" parent="1" vertex="1">
            <mxGeometry x="873" y="394" width="33" height="116" as="geometry" />
          </mxCell>
        </UserObject>
        <mxCell id="40" style="vsdxID=111;fillColor=#FFFFFF;gradientColor=none;shape=stencil(lZHBDsIgEES/Zq9mZanxXut/NCkVIkJDsdq/F7Ix2iY1eJuBNxPCANWjbgcFAscY/FU9TBc10AmEME6rYGJSQA1Q3fugLsHfXcd+aDOZ1c1PueHJOcwJgTO7I9szk9a4TbI6bJNyheJOUGmvlKXkj6fucYn+w5Z/wTtZgC5Lk/jM0Rtrec3v+/V86Yinp+YF);strokeWidth=3;points=[[0,0.24,0],[1,0.5,0],[0,0.78,0]];labelBackgroundColor=#ffffff;rounded=0;html=1;whiteSpace=wrap;fontFamily=NewsGotT;" parent="39" vertex="1">
          <mxGeometry width="33" height="116" as="geometry" />
        </mxCell>
        <mxCell id="41" value="&lt;div style=&quot;font-size: 1px&quot;&gt;&lt;font style=&quot;font-size: 19.76px; color: rgb(0, 0, 0); direction: ltr; letter-spacing: 0px; line-height: 120%; opacity: 1;&quot;&gt;&lt;b&gt;-&lt;br&gt;&lt;/b&gt;&lt;/font&gt;&lt;/div&gt;" style="verticalAlign=middle;align=center;overflow=width;vsdxID=112;fillColor=none;gradientColor=none;shape=stencil(nZBLDoAgDERP0z3SIyjew0SURgSD+Lu9kMZoXLhwN9O+tukAlrNpJg1SzDH4QW/URgNYgZTkjA4UkwJUgGXng+6DX1zLfmoymdXo17xh5zmRJ6Q42BWCfc2oJfdAr+Yv+AP9Cb7OJ3H/2JG1HNGz/84klThPVCc=);strokeColor=none;strokeWidth=3;points=[];labelBackgroundColor=none;rounded=0;html=1;whiteSpace=wrap;fontFamily=NewsGotT;" parent="39" vertex="1">
          <mxGeometry x="13" y="46" width="18" height="22" as="geometry" />
        </mxCell>
        <UserObject label="" tags="Background" id="42">
          <mxCell style="vsdxID=113;fillColor=none;gradientColor=none;points=[];labelBackgroundColor=none;rounded=0;strokeColor=none;html=1;whiteSpace=wrap;fontFamily=NewsGotT;" parent="1" vertex="1">
            <mxGeometry x="873" y="524" width="33" height="116" as="geometry" />
          </mxCell>
        </UserObject>
        <mxCell id="43" style="vsdxID=114;fillColor=#FFFFFF;gradientColor=none;shape=stencil(lZHBDsIgEES/Zq9mZanxXut/NCkVIkJDsdq/F7Ix2iY1eJuBNxPCANWjbgcFAscY/FU9TBc10AmEME6rYGJSQA1Q3fugLsHfXcd+aDOZ1c1PueHJOcwJgTO7I9szk9a4TbI6bJNyheJOUGmvlKXkj6fucYn+w5Z/wTtZgC5Lk/jM0Rtrec3v+/V86Yinp+YF);strokeWidth=3;points=[[0,0.24,0],[1,0.5,0],[0,0.78,0]];labelBackgroundColor=#ffffff;rounded=0;html=1;whiteSpace=wrap;fontFamily=NewsGotT;" parent="42" vertex="1">
          <mxGeometry width="33" height="116" as="geometry" />
        </mxCell>
        <mxCell id="44" value="&lt;div style=&quot;font-size: 1px&quot;&gt;&lt;font style=&quot;font-size: 19.76px; color: rgb(0, 0, 0); direction: ltr; letter-spacing: 0px; line-height: 120%; opacity: 1;&quot;&gt;&lt;b&gt;-&lt;br&gt;&lt;/b&gt;&lt;/font&gt;&lt;/div&gt;" style="verticalAlign=middle;align=center;overflow=width;vsdxID=115;fillColor=none;gradientColor=none;shape=stencil(nZBLDoAgDERP0z3SIyjew0SURgSD+Lu9kMZoXLhwN9O+tukAlrNpJg1SzDH4QW/URgNYgZTkjA4UkwJUgGXng+6DX1zLfmoymdXo17xh5zmRJ6Q42BWCfc2oJfdAr+Yv+AP9Cb7OJ3H/2JG1HNGz/84klThPVCc=);strokeColor=none;strokeWidth=3;points=[];labelBackgroundColor=none;rounded=0;html=1;whiteSpace=wrap;fontFamily=NewsGotT;" parent="42" vertex="1">
          <mxGeometry x="13" y="46" width="18" height="22" as="geometry" />
        </mxCell>
        <UserObject label="&lt;div style=&quot;font-size: 1px&quot;&gt;&lt;p style=&quot;text-align:left;margin-left:0;margin-right:0;margin-top:0px;margin-bottom:0px;text-indent:0;vertical-align:middle;direction:ltr;&quot;&gt;&lt;font style=&quot;font-size: 14.11px; color: rgb(0, 0, 0); direction: ltr; letter-spacing: 0px; line-height: 120%; opacity: 1;&quot;&gt;z_im&lt;br&gt;&lt;/font&gt;&lt;/p&gt;&lt;/div&gt;" tags="Background" id="47">
          <mxCell style="verticalAlign=middle;align=left;overflow=width;vsdxID=158;fillColor=none;gradientColor=none;shape=stencil(nZBLDoAgDERP0z3SIyjew0SURgSD+Lu9kMZoXLhwN9O+tukAlrNpJg1SzDH4QW/URgNYgZTkjA4UkwJUgGXng+6DX1zLfmoymdXo17xh5zmRJ6Q42BWCfc2oJfdAr+Yv+AP9Cb7OJ3H/2JG1HNGz/84klThPVCc=);strokeColor=none;points=[];labelBackgroundColor=none;rounded=0;html=1;whiteSpace=wrap;fontFamily=NewsGotT;" parent="1" vertex="1">
            <mxGeometry x="712" y="487" width="46" height="28" as="geometry" />
          </mxCell>
        </UserObject>
        <mxCell id="51" style="fontFamily=NewsGotT;" parent="1" vertex="1">
          <mxGeometry x="216" y="552" as="geometry" />
        </mxCell>
        <mxCell id="53" style="fontFamily=NewsGotT;" parent="1" vertex="1">
          <mxGeometry x="216" y="520" as="geometry" />
        </mxCell>
        <mxCell id="55" style="fontFamily=NewsGotT;" parent="1" vertex="1">
          <mxGeometry x="216" y="432" as="geometry" />
        </mxCell>
        <mxCell id="57" style="fontFamily=NewsGotT;" parent="1" vertex="1">
          <mxGeometry x="216" y="400" as="geometry" />
        </mxCell>
        <mxCell id="59" style="fontFamily=NewsGotT;" parent="1" vertex="1">
          <mxGeometry x="216" y="312" as="geometry" />
        </mxCell>
        <mxCell id="61" style="fontFamily=NewsGotT;" parent="1" vertex="1">
          <mxGeometry x="216" y="344" as="geometry" />
        </mxCell>
        <UserObject label="" tags="Connector" id="63">
          <mxCell style="vsdxID=145;edgeStyle=none;startArrow=none;endArrow=none;startSize=9;endSize=9;spacingTop=0;spacingBottom=0;spacingLeft=0;spacingRight=0;verticalAlign=middle;html=1;labelBackgroundColor=#ffffff;rounded=0;entryX=0;entryY=0.7758620689655172;entryDx=0;entryDy=0;entryPerimeter=0;jumpStyle=arc;fontFamily=NewsGotT;" parent="1" target="34" edge="1">
            <mxGeometry relative="1" as="geometry">
              <mxPoint as="offset" />
              <Array as="points">
                <mxPoint x="280" y="520" />
                <mxPoint x="280" y="632.53" />
                <mxPoint x="551.33" y="632.53" />
                <mxPoint x="583.68" y="632.53" />
                <mxPoint x="583.68" y="604" />
              </Array>
              <mxPoint x="220" y="520" as="sourcePoint" />
            </mxGeometry>
          </mxCell>
        </UserObject>
        <UserObject label="" tags="Connector" id="64">
          <mxCell style="vsdxID=144;edgeStyle=orthogonalEdgeStyle;startArrow=none;endArrow=oval;startSize=9;endSize=4;spacingTop=0;spacingBottom=0;spacingLeft=0;spacingRight=0;verticalAlign=middle;html=1;labelBackgroundColor=#ffffff;rounded=0;exitX=0;exitY=0.2413793103448276;exitDx=0;exitDy=0;exitPerimeter=0;jumpStyle=arc;fontFamily=NewsGotT;endFill=1;" parent="1" source="34" edge="1">
            <mxGeometry relative="1" as="geometry">
              <mxPoint as="offset" />
              <Array as="points">
                <mxPoint x="585" y="542" />
                <mxPoint x="585" y="565" />
                <mxPoint x="460" y="565" />
                <mxPoint x="460" y="495" />
                <mxPoint x="380" y="495" />
              </Array>
              <mxPoint x="310" y="495" as="targetPoint" />
            </mxGeometry>
          </mxCell>
        </UserObject>
        <UserObject label="" tags="Connector" id="65">
          <mxCell style="vsdxID=143;edgeStyle=none;startArrow=oval;endArrow=none;startSize=4;endSize=9;spacingTop=0;spacingBottom=0;spacingLeft=0;spacingRight=0;verticalAlign=middle;html=1;labelBackgroundColor=#ffffff;rounded=0;entryX=0;entryY=0.7758620689655172;entryDx=0;entryDy=0;entryPerimeter=0;jumpStyle=none;fontFamily=NewsGotT;strokeColor=default;align=center;fontSize=11;fontColor=default;endFill=1;startFill=1;" parent="1" target="31" edge="1">
            <mxGeometry relative="1" as="geometry">
              <mxPoint x="-1" as="offset" />
              <Array as="points">
                <mxPoint x="360" y="624" />
                <mxPoint x="551.33" y="624" />
                <mxPoint x="570" y="624" />
                <mxPoint x="570" y="454" />
              </Array>
              <mxPoint x="360" y="590" as="sourcePoint" />
            </mxGeometry>
          </mxCell>
        </UserObject>
        <UserObject label="" tags="Connector" id="66">
          <mxCell style="vsdxID=142;edgeStyle=orthogonalEdgeStyle;startArrow=none;endArrow=none;startSize=9;endSize=9;spacingTop=0;spacingBottom=0;spacingLeft=0;spacingRight=0;verticalAlign=middle;html=1;labelBackgroundColor=#ffffff;rounded=0;entryX=0;entryY=0.763;entryDx=0;entryDy=0;entryPerimeter=0;jumpStyle=none;fontFamily=NewsGotT;strokeColor=default;align=center;fontSize=11;fontColor=default;" parent="1" target="6" edge="1">
            <mxGeometry relative="1" as="geometry">
              <mxPoint as="offset" />
              <Array as="points">
                <mxPoint x="360" y="552" />
                <mxPoint x="360" y="590" />
                <mxPoint x="396" y="590" />
              </Array>
              <mxPoint x="220" y="552" as="sourcePoint" />
            </mxGeometry>
          </mxCell>
        </UserObject>
        <UserObject label="" tags="Connector" id="67">
          <mxCell style="vsdxID=141;edgeStyle=orthogonalEdgeStyle;startArrow=oval;endArrow=none;startSize=4;endSize=9;spacingTop=0;spacingBottom=0;spacingLeft=0;spacingRight=0;verticalAlign=middle;html=1;labelBackgroundColor=#ffffff;rounded=0;entryX=0;entryY=0.7758620689655172;entryDx=0;entryDy=0;entryPerimeter=0;jumpStyle=none;fontFamily=NewsGotT;startFill=1;" parent="1" target="15" edge="1">
            <mxGeometry relative="1" as="geometry">
              <mxPoint as="offset" />
              <Array as="points">
                <mxPoint x="280" y="520" />
                <mxPoint x="280" y="462" />
              </Array>
              <mxPoint x="280" y="520" as="sourcePoint" />
            </mxGeometry>
          </mxCell>
        </UserObject>
        <UserObject label="" tags="Connector" id="68">
          <mxCell style="vsdxID=140;edgeStyle=none;startArrow=none;endArrow=none;startSize=9;endSize=9;spacingTop=0;spacingBottom=0;spacingLeft=0;spacingRight=0;verticalAlign=middle;html=1;labelBackgroundColor=#ffffff;rounded=0;entryX=0;entryY=0.2413793103448276;entryDx=0;entryDy=0;entryPerimeter=0;fontFamily=NewsGotT;" parent="1" target="6" edge="1">
            <mxGeometry relative="1" as="geometry">
              <mxPoint as="offset" />
              <Array as="points">
                <mxPoint x="310" y="432" />
                <mxPoint x="310" y="530" />
              </Array>
              <mxPoint x="220" y="432" as="sourcePoint" />
            </mxGeometry>
          </mxCell>
        </UserObject>
        <UserObject label="" tags="Connector" id="69">
          <mxCell style="vsdxID=139;edgeStyle=none;startArrow=none;endArrow=oval;startSize=9;endSize=4;spacingTop=0;spacingBottom=0;spacingLeft=0;spacingRight=0;verticalAlign=middle;html=1;labelBackgroundColor=#ffffff;rounded=0;exitX=0;exitY=0.2413793103448276;exitDx=0;exitDy=0;exitPerimeter=0;jumpStyle=arc;fontFamily=NewsGotT;endFill=1;" parent="1" source="31" edge="1">
            <mxGeometry relative="1" as="geometry">
              <mxPoint as="offset" />
              <Array as="points">
                <mxPoint x="557.5" y="392" />
                <mxPoint x="450.47" y="392" />
                <mxPoint x="450.47" y="367.2" />
                <mxPoint x="359.5" y="367.2" />
                <mxPoint x="359.5" y="400" />
              </Array>
              <mxPoint x="360" y="400" as="targetPoint" />
            </mxGeometry>
          </mxCell>
        </UserObject>
        <UserObject label="" tags="Connector" id="70">
          <mxCell style="vsdxID=138;edgeStyle=none;startArrow=none;endArrow=none;startSize=9;endSize=9;spacingTop=0;spacingBottom=0;spacingLeft=0;spacingRight=0;verticalAlign=middle;html=1;labelBackgroundColor=#ffffff;rounded=0;entryX=0;entryY=0.2413793103448276;entryDx=0;entryDy=0;entryPerimeter=0;fontFamily=NewsGotT;" parent="1" target="15" edge="1">
            <mxGeometry relative="1" as="geometry">
              <mxPoint as="offset" />
              <Array as="points" />
              <mxPoint x="220" y="400" as="sourcePoint" />
            </mxGeometry>
          </mxCell>
        </UserObject>
        <UserObject label="" tags="Connector" id="71">
          <mxCell style="vsdxID=135;edgeStyle=none;startArrow=none;endArrow=none;startSize=9;endSize=9;spacingTop=0;spacingBottom=0;spacingLeft=0;spacingRight=0;verticalAlign=middle;html=1;labelBackgroundColor=#ffffff;rounded=0;entryX=0;entryY=0.2413793103448276;entryDx=0;entryDy=0;entryPerimeter=0;jumpStyle=arc;fontFamily=NewsGotT;" parent="1" target="25" edge="1">
            <mxGeometry relative="1" as="geometry">
              <mxPoint as="offset" />
              <Array as="points">
                <mxPoint x="405.16" y="344" />
                <mxPoint x="405.16" y="358" />
                <mxPoint x="551.33" y="358" />
              </Array>
              <mxPoint x="220" y="344" as="sourcePoint" />
            </mxGeometry>
          </mxCell>
        </UserObject>
        <UserObject label="" tags="Connector" id="72">
          <mxCell style="vsdxID=134;edgeStyle=orthogonalEdgeStyle;startArrow=none;endArrow=none;startSize=9;endSize=9;spacingTop=0;spacingBottom=0;spacingLeft=0;spacingRight=0;verticalAlign=middle;html=1;labelBackgroundColor=#ffffff;rounded=0;entryX=0;entryY=0.2413793103448276;entryDx=0;entryDy=0;entryPerimeter=0;fontFamily=NewsGotT;" parent="1" target="18" edge="1">
            <mxGeometry relative="1" as="geometry">
              <mxPoint as="offset" />
              <Array as="points">
                <mxPoint x="530" y="313" />
                <mxPoint x="530" y="262" />
              </Array>
              <mxPoint x="220" y="313" as="sourcePoint" />
            </mxGeometry>
          </mxCell>
        </UserObject>
        <mxCell id="73" style="fontFamily=NewsGotT;" parent="1" vertex="1">
          <mxGeometry x="1026" y="376" as="geometry" />
        </mxCell>
        <mxCell id="75" style="fontFamily=NewsGotT;" parent="1" vertex="1">
          <mxGeometry x="1000" y="376" as="geometry" />
        </mxCell>
        <UserObject label="" tags="Connector" id="76">
          <mxCell style="vsdxID=132;edgeStyle=orthogonalEdgeStyle;startArrow=none;endArrow=none;startSize=9;endSize=9;spacingTop=0;spacingBottom=0;spacingLeft=0;spacingRight=0;verticalAlign=middle;html=1;labelBackgroundColor=#ffffff;rounded=0;exitX=1;exitY=0.5;exitDx=0;exitDy=0;exitPerimeter=0;jumpStyle=arc;fontFamily=NewsGotT;" parent="1" source="25" edge="1">
            <mxGeometry relative="1" as="geometry">
              <mxPoint x="-1" as="offset" />
              <Array as="points">
                <mxPoint x="910" y="388" />
                <mxPoint x="910" y="376" />
              </Array>
              <mxPoint x="1035" y="376" as="targetPoint" />
            </mxGeometry>
          </mxCell>
        </UserObject>
        <mxCell id="77" style="fontFamily=NewsGotT;" parent="1" vertex="1">
          <mxGeometry x="1025" y="532" as="geometry" />
        </mxCell>
        <mxCell id="79" style="fontFamily=NewsGotT;" parent="1" vertex="1">
          <mxGeometry x="1025" y="500" as="geometry" />
        </mxCell>
        <UserObject label="" tags="Connector" id="81">
          <mxCell style="vsdxID=129;edgeStyle=none;startArrow=none;endArrow=none;startSize=9;endSize=9;spacingTop=0;spacingBottom=0;spacingLeft=0;spacingRight=0;verticalAlign=middle;html=1;labelBackgroundColor=#ffffff;rounded=0;entryX=1;entryY=0.5;entryDx=0;entryDy=0;entryPerimeter=0;fontFamily=NewsGotT;" parent="1" target="43" edge="1">
            <mxGeometry relative="1" as="geometry">
              <mxPoint y="-1" as="offset" />
              <Array as="points">
                <mxPoint x="956" y="532" />
                <mxPoint x="956" y="582" />
              </Array>
              <mxPoint x="1035" y="532" as="sourcePoint" />
            </mxGeometry>
          </mxCell>
        </UserObject>
        <UserObject label="" tags="Connector" id="82">
          <mxCell style="vsdxID=128;edgeStyle=none;startArrow=none;endArrow=none;startSize=9;endSize=9;spacingTop=0;spacingBottom=0;spacingLeft=0;spacingRight=0;verticalAlign=middle;html=1;labelBackgroundColor=#ffffff;rounded=0;entryX=1;entryY=0.5;entryDx=0;entryDy=0;entryPerimeter=0;fontFamily=NewsGotT;" parent="1" target="40" edge="1">
            <mxGeometry relative="1" as="geometry">
              <mxPoint as="offset" />
              <Array as="points">
                <mxPoint x="956" y="500" />
                <mxPoint x="956" y="452" />
              </Array>
              <mxPoint x="1035" y="500" as="sourcePoint" />
            </mxGeometry>
          </mxCell>
        </UserObject>
        <UserObject label="" tags="Connector" id="83">
          <mxCell style="vsdxID=119;edgeStyle=orthogonalEdgeStyle;startArrow=none;endArrow=oval;startSize=9;endSize=4;spacingTop=0;spacingBottom=0;spacingLeft=0;spacingRight=0;verticalAlign=middle;html=1;labelBackgroundColor=#ffffff;rounded=0;exitX=0;exitY=0.2413793103448276;exitDx=0;exitDy=0;exitPerimeter=0;fontFamily=NewsGotT;startFill=0;endFill=1;" parent="1" source="40" edge="1">
            <mxGeometry relative="1" as="geometry">
              <mxPoint as="offset" />
              <Array as="points">
                <mxPoint x="860" y="422" />
                <mxPoint x="860" y="220" />
                <mxPoint x="530" y="220" />
              </Array>
              <mxPoint x="530" y="262" as="targetPoint" />
            </mxGeometry>
          </mxCell>
        </UserObject>
        <UserObject label="" tags="Connector" id="84">
          <mxCell style="vsdxID=118;edgeStyle=none;startArrow=oval;endArrow=none;startSize=4;endSize=9;spacingTop=0;spacingBottom=0;spacingLeft=0;spacingRight=0;verticalAlign=middle;html=1;labelBackgroundColor=#ffffff;rounded=0;entryX=0;entryY=0.7758620689655172;entryDx=0;entryDy=0;entryPerimeter=0;jumpStyle=none;fontFamily=NewsGotT;strokeColor=default;align=center;fontSize=11;fontColor=default;startFill=1;" parent="1" target="40" edge="1">
            <mxGeometry relative="1" as="geometry">
              <mxPoint as="offset" />
              <Array as="points">
                <mxPoint x="554.67" y="640.62" />
                <mxPoint x="812.9" y="640.62" />
                <mxPoint x="812.9" y="483.98" />
                <mxPoint x="828.67" y="483.98" />
              </Array>
              <mxPoint x="555" y="495" as="sourcePoint" />
            </mxGeometry>
          </mxCell>
        </UserObject>
        <UserObject label="" tags="Connector" id="85">
          <mxCell style="vsdxID=117;edgeStyle=orthogonalEdgeStyle;startArrow=none;endArrow=oval;startSize=9;endSize=4;spacingTop=0;spacingBottom=0;spacingLeft=0;spacingRight=0;verticalAlign=middle;html=1;labelBackgroundColor=#ffffff;rounded=0;exitX=0;exitY=0.2413793103448276;exitDx=0;exitDy=0;exitPerimeter=0;fontFamily=NewsGotT;startFill=0;endFill=1;" parent="1" source="43" edge="1">
            <mxGeometry relative="1" as="geometry">
              <mxPoint as="offset" />
              <Array as="points">
                <mxPoint x="840" y="552" />
                <mxPoint x="840" y="315" />
                <mxPoint x="756" y="315" />
              </Array>
              <mxPoint x="756" y="358" as="targetPoint" />
            </mxGeometry>
          </mxCell>
        </UserObject>
        <UserObject label="" tags="Connector" id="86">
          <mxCell style="vsdxID=116;edgeStyle=orthogonalEdgeStyle;startArrow=oval;endArrow=none;startSize=4;endSize=9;spacingTop=0;spacingBottom=0;spacingLeft=0;spacingRight=0;verticalAlign=middle;html=1;labelBackgroundColor=#ffffff;rounded=0;entryX=0;entryY=0.7758620689655172;entryDx=0;entryDy=0;entryPerimeter=0;jumpStyle=none;fontFamily=NewsGotT;strokeColor=default;align=center;fontSize=11;fontColor=default;startFill=1;" parent="1" target="43" edge="1">
            <mxGeometry relative="1" as="geometry">
              <mxPoint y="-1" as="offset" />
              <Array as="points">
                <mxPoint x="755" y="614" />
              </Array>
              <mxPoint x="755" y="512" as="sourcePoint" />
            </mxGeometry>
          </mxCell>
        </UserObject>
        <UserObject label="" tags="Connector" id="87">
          <mxCell style="vsdxID=109;edgeStyle=none;startArrow=none;endArrow=none;startSize=9;endSize=9;spacingTop=0;spacingBottom=0;spacingLeft=0;spacingRight=0;verticalAlign=middle;html=1;labelBackgroundColor=#ffffff;rounded=0;exitX=1;exitY=0.5;exitDx=0;exitDy=0;exitPerimeter=0;entryX=0;entryY=0.7758620689655172;entryDx=0;entryDy=0;entryPerimeter=0;fontFamily=NewsGotT;" parent="1" source="37" target="25" edge="1">
            <mxGeometry relative="1" as="geometry">
              <mxPoint as="offset" />
              <Array as="points">
                <mxPoint x="755" y="512" />
                <mxPoint x="755" y="420" />
              </Array>
            </mxGeometry>
          </mxCell>
        </UserObject>
        <UserObject label="" tags="Connector" id="88">
          <mxCell style="vsdxID=108;edgeStyle=none;startArrow=none;endArrow=none;startSize=9;endSize=9;spacingTop=0;spacingBottom=0;spacingLeft=0;spacingRight=0;verticalAlign=middle;html=1;labelBackgroundColor=#ffffff;rounded=0;exitX=1;exitY=0.5;exitDx=0;exitDy=0;exitPerimeter=0;entryX=0;entryY=0.7758620689655172;entryDx=0;entryDy=0;entryPerimeter=0;fontFamily=NewsGotT;" parent="1" source="34" target="37" edge="1">
            <mxGeometry relative="1" as="geometry">
              <mxPoint as="offset" />
              <Array as="points">
                <mxPoint x="651" y="572" />
                <mxPoint x="651" y="544" />
              </Array>
            </mxGeometry>
          </mxCell>
        </UserObject>
        <UserObject label="" tags="Connector" id="89">
          <mxCell style="vsdxID=107;edgeStyle=none;startArrow=none;endArrow=none;startSize=9;endSize=9;spacingTop=0;spacingBottom=0;spacingLeft=0;spacingRight=0;verticalAlign=middle;html=1;labelBackgroundColor=#ffffff;rounded=0;exitX=1;exitY=0.5;exitDx=0;exitDy=0;exitPerimeter=0;entryX=0;entryY=0.2413793103448276;entryDx=0;entryDy=0;entryPerimeter=0;fontFamily=NewsGotT;" parent="1" source="31" target="37" edge="1">
            <mxGeometry relative="1" as="geometry">
              <mxPoint y="-1" as="offset" />
              <Array as="points">
                <mxPoint x="651" y="422" />
                <mxPoint x="651" y="482" />
              </Array>
            </mxGeometry>
          </mxCell>
        </UserObject>
        <UserObject label="" tags="Connector" id="90">
          <mxCell style="vsdxID=90;edgeStyle=none;startArrow=none;endArrow=none;startSize=9;endSize=9;spacingTop=0;spacingBottom=0;spacingLeft=0;spacingRight=0;verticalAlign=middle;html=1;labelBackgroundColor=#ffffff;rounded=0;exitX=1;exitY=0.5;exitDx=0;exitDy=0;exitPerimeter=0;entryX=0;entryY=0.7758620689655172;entryDx=0;entryDy=0;entryPerimeter=0;fontFamily=NewsGotT;" parent="1" source="28" target="18" edge="1">
            <mxGeometry relative="1" as="geometry">
              <mxPoint y="-1" as="offset" />
              <Array as="points">
                <mxPoint x="555" y="495" />
                <mxPoint x="555" y="324" />
              </Array>
            </mxGeometry>
          </mxCell>
        </UserObject>
        <UserObject label="" tags="Connector" id="91">
          <mxCell style="vsdxID=67;edgeStyle=orthogonalEdgeStyle;startArrow=none;endArrow=none;startSize=9;endSize=9;spacingTop=0;spacingBottom=0;spacingLeft=0;spacingRight=0;verticalAlign=middle;html=1;labelBackgroundColor=#ffffff;rounded=0;exitX=1;exitY=0.5;exitDx=0;exitDy=0;exitPerimeter=0;jumpStyle=none;fontFamily=NewsGotT;strokeColor=default;align=center;fontSize=11;fontColor=default;" parent="1" source="18" edge="1">
            <mxGeometry relative="1" as="geometry">
              <mxPoint x="-1" as="offset" />
              <Array as="points">
                <mxPoint x="910" y="292" />
                <mxPoint x="910" y="344" />
              </Array>
              <mxPoint x="1035" y="344" as="targetPoint" />
            </mxGeometry>
          </mxCell>
        </UserObject>
        <mxCell id="92" style="fontFamily=NewsGotT;" parent="1" vertex="1">
          <mxGeometry x="1026" y="344" as="geometry" />
        </mxCell>
        <UserObject label="" tags="Connector" id="94">
          <mxCell style="vsdxID=88;edgeStyle=none;startArrow=none;endArrow=none;startSize=9;endSize=9;spacingTop=0;spacingBottom=0;spacingLeft=0;spacingRight=0;verticalAlign=middle;html=1;labelBackgroundColor=#ffffff;rounded=0;exitX=1;exitY=0.5;exitDx=0;exitDy=0;exitPerimeter=0;entryX=0;entryY=0.2413793103448276;entryDx=0;entryDy=0;entryPerimeter=0;fontFamily=NewsGotT;" parent="1" source="15" target="28" edge="1">
            <mxGeometry relative="1" as="geometry">
              <mxPoint as="offset" />
              <Array as="points">
                <mxPoint x="444" y="430" />
                <mxPoint x="444" y="465.02" />
              </Array>
            </mxGeometry>
          </mxCell>
        </UserObject>
        <UserObject label="" tags="Connector" id="95">
          <mxCell style="vsdxID=89;edgeStyle=none;startArrow=none;endArrow=none;startSize=9;endSize=9;spacingTop=0;spacingBottom=0;spacingLeft=0;spacingRight=0;verticalAlign=middle;html=1;labelBackgroundColor=#ffffff;rounded=0;exitX=1;exitY=0.5;exitDx=0;exitDy=0;exitPerimeter=0;entryX=0;entryY=0.7758620689655172;entryDx=0;entryDy=0;entryPerimeter=0;jumpStyle=none;fontFamily=NewsGotT;strokeColor=default;align=center;fontSize=11;fontColor=default;" parent="1" source="6" target="28" edge="1">
            <mxGeometry relative="1" as="geometry">
              <mxPoint as="offset" />
              <Array as="points">
                <mxPoint x="444" y="560" />
                <mxPoint x="444" y="527.02" />
                <mxPoint x="456.67" y="527.02" />
              </Array>
            </mxGeometry>
          </mxCell>
        </UserObject>
        <mxCell id="3" value="&lt;div style=&quot;font-size: 1px&quot;&gt;&lt;font style=&quot;font-size: 16.93px; color: rgb(0, 0, 0); direction: ltr; letter-spacing: 0px; line-height: 120%; opacity: 1;&quot;&gt;Butterfly Unit&lt;br&gt;&lt;/font&gt;&lt;/div&gt;" style="text;vsdxID=1;fillColor=none;gradientColor=none;dashed=1;dashPattern=12.00 6.00;points=[[0,0.27,0],[1,0.33,0],[1,0.4,0],[1,0.54,0],[1,0.6,0],[1,0.67,0],[1,0.74,0],[1,0.74,0],[0,0.33,0],[0,0.46,0],[0,0.53,0],[0,0.72,0],[0,0.79,0]];labelBackgroundColor=none;rounded=0;html=1;whiteSpace=wrap;verticalAlign=middle;align=center;overflow=width;strokeColor=none;;html=1;fontFamily=NewsGotT;" parent="1" vertex="1">
          <mxGeometry x="240" y="200" width="106" height="30" as="geometry" />
        </mxCell>
        <UserObject label="&lt;div style=&quot;font-size: 1px&quot;&gt;&lt;p style=&quot;text-align:left;margin-left:0;margin-right:0;margin-top:0px;margin-bottom:0px;text-indent:0;vertical-align:middle;direction:ltr;&quot;&gt;&lt;font style=&quot;font-size: 14.11px; color: rgb(0, 0, 0); direction: ltr; letter-spacing: 0px; line-height: 120%; opacity: 1;&quot;&gt;x0_real + z_real&lt;br&gt;&lt;/font&gt;&lt;/p&gt;&lt;/div&gt;" tags="Background" id="45">
          <mxCell style="verticalAlign=middle;align=left;overflow=width;vsdxID=155;fillColor=none;gradientColor=none;shape=stencil(nZBLDoAgDERP0z3SIyjew0SURgSD+Lu9kMZoXLhwN9O+tukAlrNpJg1SzDH4QW/URgNYgZTkjA4UkwJUgGXng+6DX1zLfmoymdXo17xh5zmRJ6Q42BWCfc2oJfdAr+Yv+AP9Cb7OJ3H/2JG1HNGz/84klThPVCc=);strokeColor=none;points=[];labelBackgroundColor=none;rounded=0;html=1;whiteSpace=wrap;fontFamily=NewsGotT;" parent="1" vertex="1">
            <mxGeometry x="616" y="268" width="103" height="28" as="geometry" />
          </mxCell>
        </UserObject>
        <UserObject label="&lt;div style=&quot;font-size: 1px&quot;&gt;&lt;p style=&quot;text-align:left;margin-left:0;margin-right:0;margin-top:0px;margin-bottom:0px;text-indent:0;vertical-align:middle;direction:ltr;&quot;&gt;&lt;font style=&quot;font-size: 14.11px; color: rgb(0, 0, 0); direction: ltr; letter-spacing: 0px; line-height: 120%; opacity: 1;&quot;&gt;z_real&lt;br&gt;&lt;/font&gt;&lt;/p&gt;&lt;/div&gt;" tags="Background" id="46">
          <mxCell style="verticalAlign=middle;align=left;overflow=width;vsdxID=156;fillColor=none;gradientColor=none;shape=stencil(nZBLDoAgDERP0z3SIyjew0SURgSD+Lu9kMZoXLhwN9O+tukAlrNpJg1SzDH4QW/URgNYgZTkjA4UkwJUgGXng+6DX1zLfmoymdXo17xh5zmRJ6Q42BWCfc2oJfdAr+Yv+AP9Cb7OJ3H/2JG1HNGz/84klThPVCc=);strokeColor=none;points=[];labelBackgroundColor=none;rounded=0;html=1;whiteSpace=wrap;fontFamily=NewsGotT;" parent="1" vertex="1">
            <mxGeometry x="520" y="471" width="46" height="28" as="geometry" />
          </mxCell>
        </UserObject>
        <UserObject label="&lt;div style=&quot;font-size: 1px&quot;&gt;&lt;p style=&quot;text-align:left;margin-left:0;margin-right:0;margin-top:0px;margin-bottom:0px;text-indent:0;vertical-align:middle;direction:ltr;&quot;&gt;&lt;font style=&quot;font-size: 14.11px; color: rgb(0, 0, 0); direction: ltr; letter-spacing: 0px; line-height: 120%; opacity: 1;&quot;&gt;x0_real - z_real&lt;br&gt;&lt;/font&gt;&lt;/p&gt;&lt;/div&gt;" tags="Background" id="49">
          <mxCell style="verticalAlign=middle;align=left;overflow=width;vsdxID=160;fillColor=none;gradientColor=none;shape=stencil(nZBLDoAgDERP0z3SIyjew0SURgSD+Lu9kMZoXLhwN9O+tukAlrNpJg1SzDH4QW/URgNYgZTkjA4UkwJUgGXng+6DX1zLfmoymdXo17xh5zmRJ6Q42BWCfc2oJfdAr+Yv+AP9Cb7OJ3H/2JG1HNGz/84klThPVCc=);strokeColor=none;points=[];labelBackgroundColor=none;rounded=0;html=1;whiteSpace=wrap;fontFamily=NewsGotT;" parent="1" vertex="1">
            <mxGeometry x="913" y="427" width="103" height="28" as="geometry" />
          </mxCell>
        </UserObject>
        <UserObject label="&lt;div style=&quot;font-size: 1px&quot;&gt;&lt;p style=&quot;text-align:left;margin-left:0;margin-right:0;margin-top:0px;margin-bottom:0px;text-indent:0;vertical-align:middle;direction:ltr;&quot;&gt;&lt;font style=&quot;font-size: 14.11px; color: rgb(0, 0, 0); direction: ltr; letter-spacing: 0px; line-height: 120%; opacity: 1;&quot;&gt;x0_im - z_im&lt;br&gt;&lt;/font&gt;&lt;/p&gt;&lt;/div&gt;" tags="Background" id="50">
          <mxCell style="verticalAlign=middle;align=left;overflow=width;vsdxID=161;fillColor=none;gradientColor=none;shape=stencil(nZBLDoAgDERP0z3SIyjew0SURgSD+Lu9kMZoXLhwN9O+tukAlrNpJg1SzDH4QW/URgNYgZTkjA4UkwJUgGXng+6DX1zLfmoymdXo17xh5zmRJ6Q42BWCfc2oJfdAr+Yv+AP9Cb7OJ3H/2JG1HNGz/84klThPVCc=);strokeColor=none;points=[];labelBackgroundColor=none;rounded=0;html=1;whiteSpace=wrap;fontFamily=NewsGotT;" parent="1" vertex="1">
            <mxGeometry x="913" y="575" width="103" height="28" as="geometry" />
          </mxCell>
        </UserObject>
        <UserObject label="&lt;div style=&quot;font-size: 1px&quot;&gt;&lt;p style=&quot;text-align:left;margin-left:0;margin-right:0;margin-top:0px;margin-bottom:0px;text-indent:0;vertical-align:middle;direction:ltr;&quot;&gt;&lt;font style=&quot;font-size: 14.11px; color: rgb(0, 0, 0); direction: ltr; letter-spacing: 0px; line-height: 120%; opacity: 1;&quot;&gt;x0_im + z_im&lt;br&gt;&lt;/font&gt;&lt;/p&gt;&lt;/div&gt;" tags="Background" id="48">
          <mxCell style="verticalAlign=middle;align=left;overflow=width;vsdxID=159;fillColor=none;gradientColor=none;shape=stencil(nZBLDoAgDERP0z3SIyjew0SURgSD+Lu9kMZoXLhwN9O+tukAlrNpJg1SzDH4QW/URgNYgZTkjA4UkwJUgGXng+6DX1zLfmoymdXo17xh5zmRJ6Q42BWCfc2oJfdAr+Yv+AP9Cb7OJ3H/2JG1HNGz/84klThPVCc=);strokeColor=none;points=[];labelBackgroundColor=none;rounded=0;html=1;whiteSpace=wrap;fontFamily=NewsGotT;" parent="1" vertex="1">
            <mxGeometry x="890" y="351" width="103" height="28" as="geometry" />
          </mxCell>
        </UserObject>
      </root>
    </mxGraphModel>
  </diagram>
</mxfile>
